<svg width="112" height="12" viewBox="0 0 112 12" fill="none" xmlns="http://www.w3.org/2000/svg">
<path d="M0 0.0299988H2.21V9.52H5.42V11.62H0V0.0299988Z" fill="white"/>
<path d="M6.41016 1.97H8.26016V8.22C8.26016 8.76 8.31016 9.14 8.40016 9.36C8.49016 9.58 8.65016 9.76 8.86016 9.89C9.08016 10.02 9.34016 10.09 9.65016 10.09C9.97016 10.09 10.2502 10.01 10.4902 9.87C10.7202 9.72 10.8902 9.53 10.9802 9.3C11.0702 9.07 11.1202 8.63 11.1202 7.98V1.96H12.9702V7.72C12.9702 8.69 12.9102 9.37 12.8102 9.74C12.7002 10.12 12.4902 10.48 12.1802 10.83C11.8702 11.18 11.5202 11.44 11.1102 11.61C10.7102 11.78 10.2402 11.86 9.70016 11.86C9.00016 11.86 8.39016 11.7 7.87016 11.38C7.35016 11.06 6.98016 10.66 6.76016 10.17C6.54016 9.69 6.43016 8.87 6.43016 7.72V1.97H6.41016Z" fill="white"/>
<path d="M14.7598 1.97H16.6198V5.3L19.2398 1.97H21.4498L18.0798 6.28L21.7798 11.63H19.5998L16.6198 7.34V11.63H14.7598V1.97Z" fill="white"/>
<path d="M27.8199 3.28L26.4599 4.48C25.9799 3.81 25.4999 3.48 24.9999 3.48C24.7599 3.48 24.5599 3.54 24.4099 3.67C24.2599 3.8 24.1799 3.94 24.1799 4.11C24.1799 4.27 24.2299 4.43 24.3399 4.57C24.4899 4.76 24.9399 5.18 25.6899 5.81C26.3899 6.4 26.8199 6.77 26.9699 6.92C27.3399 7.3 27.6099 7.66 27.7599 8C27.9099 8.34 27.9899 8.72 27.9899 9.13C27.9899 9.92 27.7199 10.58 27.1699 11.1C26.6199 11.62 25.9099 11.87 25.0299 11.87C24.3399 11.87 23.7399 11.7 23.2299 11.36C22.7199 11.02 22.2799 10.49 21.9199 9.77L23.4699 8.84C23.9299 9.69 24.4699 10.12 25.0699 10.12C25.3899 10.12 25.6499 10.03 25.8699 9.84C26.0799 9.66 26.1899 9.45 26.1899 9.2C26.1899 8.98 26.1099 8.76 25.9499 8.54C25.7899 8.32 25.4299 7.99 24.8799 7.54C23.8299 6.68 23.1499 6.02 22.8399 5.55C22.5299 5.08 22.3799 4.62 22.3799 4.15C22.3799 3.48 22.6399 2.91 23.1499 2.43C23.6599 1.95 24.2899 1.71 25.0399 1.71C25.5199 1.71 25.9799 1.82 26.4199 2.04C26.8399 2.28 27.3099 2.69 27.8199 3.28Z" fill="white"/>
<path d="M33.7402 0.0299988H35.9502V9.52H39.1602V11.62H33.7402V0.0299988Z" fill="white"/>
<path d="M44.78 1.72C46.15 1.72 47.32 2.21 48.31 3.2C49.29 4.19 49.79 5.4 49.79 6.82C49.79 8.23 49.3 9.42 48.33 10.4C47.36 11.38 46.18 11.87 44.8 11.87C43.35 11.87 42.15 11.37 41.19 10.37C40.23 9.37 39.75 8.18 39.75 6.8C39.75 5.88 39.97 5.03 40.42 4.25C40.87 3.47 41.48 2.86 42.26 2.41C43.03 1.95 43.88 1.72 44.78 1.72ZM44.76 3.52C43.87 3.52 43.11 3.83 42.5 4.45C41.89 5.07 41.59 5.86 41.59 6.82C41.59 7.89 41.97 8.73 42.74 9.36C43.33 9.85 44.02 10.09 44.79 10.09C45.66 10.09 46.4 9.77 47.02 9.14C47.63 8.51 47.94 7.73 47.94 6.81C47.94 5.89 47.63 5.11 47.01 4.48C46.39 3.84 45.64 3.52 44.76 3.52Z" fill="white"/>
<path d="M51.2002 1.97H56.0002V3.76H53.0302V5.51H56.0002V7.28H53.0302V11.63H51.2002V1.97Z" fill="white"/>
<path d="M56.3398 1.97H61.6798V3.78H59.9198V11.63H58.0498V3.78H56.3398V1.97Z" fill="white"/>
<path d="M67.67 3.28L66.31 4.48C65.83 3.81 65.35 3.48 64.85 3.48C64.61 3.48 64.41 3.54 64.26 3.67C64.11 3.8 64.03 3.94 64.03 4.11C64.03 4.27 64.08 4.43 64.19 4.57C64.34 4.76 64.79 5.18 65.54 5.81C66.24 6.4 66.67 6.77 66.82 6.92C67.19 7.3 67.46 7.66 67.61 8C67.76 8.34 67.84 8.72 67.84 9.13C67.84 9.92 67.57 10.58 67.02 11.1C66.47 11.62 65.76 11.87 64.88 11.87C64.19 11.87 63.59 11.7 63.08 11.36C62.57 11.02 62.13 10.49 61.77 9.77L63.32 8.84C63.78 9.69 64.32 10.12 64.92 10.12C65.24 10.12 65.5 10.03 65.72 9.84C65.93 9.66 66.04 9.45 66.04 9.2C66.04 8.98 65.96 8.76 65.8 8.54C65.64 8.32 65.28 7.99 64.73 7.54C63.68 6.68 63 6.02 62.69 5.55C62.38 5.08 62.23 4.62 62.23 4.15C62.23 3.48 62.49 2.91 63 2.43C63.51 1.95 64.14 1.71 64.89 1.71C65.37 1.71 65.83 1.82 66.27 2.04C66.69 2.28 67.17 2.69 67.67 3.28Z" fill="white"/>
<path d="M73.5898 0.0299988H75.8298V4.4H79.6998V0.0299988H81.9298V11.62H79.6998V6.54H75.8298V11.62H73.5898V0.0299988Z" fill="white"/>
<path d="M88.5102 1.72C89.8702 1.72 91.0502 2.21 92.0302 3.2C93.0102 4.19 93.5102 5.4 93.5102 6.82C93.5102 8.23 93.0302 9.42 92.0502 10.4C91.0802 11.38 89.9002 11.87 88.5202 11.87C87.0702 11.87 85.8702 11.37 84.9102 10.37C83.9502 9.37 83.4702 8.18 83.4702 6.8C83.4702 5.88 83.6902 5.03 84.1402 4.25C84.5902 3.47 85.2002 2.86 85.9802 2.41C86.7602 1.95 87.6102 1.72 88.5102 1.72ZM88.4902 3.52C87.6002 3.52 86.8402 3.83 86.2402 4.45C85.6302 5.07 85.3302 5.86 85.3302 6.82C85.3302 7.89 85.7102 8.73 86.4802 9.36C87.0802 9.85 87.7602 10.09 88.5302 10.09C89.4002 10.09 90.1402 9.77 90.7602 9.14C91.3702 8.51 91.6802 7.73 91.6802 6.81C91.6802 5.89 91.3702 5.11 90.7502 4.48C90.1302 3.84 89.3702 3.52 88.4902 3.52Z" fill="white"/>
<path d="M93.9502 1.97H99.2902V3.78H97.5302V11.63H95.6602V3.78H93.9502V1.97Z" fill="white"/>
<path d="M100.22 1.97H105.49V3.77H102.04V5.52H105.49V7.29H102.04V9.83H105.49V11.63H100.22V1.97Z" fill="white"/>
<path d="M106.88 1.97H108.72V9.88H111.4V11.63H106.88V1.97Z" fill="white"/>
</svg>
